<svg xmlns="http://www.w3.org/2000/svg" width="640" height="400" viewBox="0 0 640 400" fill="none">
  <defs>
    <linearGradient id="bg" x1="80" y1="40" x2="560" y2="360" gradientUnits="userSpaceOnUse">
      <stop stop-color="#0EA5E9" />
      <stop offset="1" stop-color="#1F2937" />
    </linearGradient>
  </defs>
  <rect width="640" height="400" rx="28" fill="url(#bg)"/>
  <rect x="72" y="72" width="496" height="256" rx="24" fill="rgba(9,9,11,0.35)" stroke="rgba(255,255,255,0.25)"/>
  <path d="M292.8 202.9c0-20 16.2-36.3 36.3-36.3s36.3 16.3 36.3 36.3c0 20.2-16.2 36.3-36.3 36.3s-36.3-16.1-36.3-36.3Z" fill="#E5E7EB"/>
  <path d="M343.8 136.3c6.7-7.6 11.4-18.1 10.3-28.6-9.6.4-21.4 6.4-28.2 14-6.1 6.9-11.7 18-10.1 28 10.7.8 21.2-5.5 28-13.4Z" fill="#E5E7EB"/>
  <text x="320" y="290" fill="#E5E7EB" font-family="Arial, Helvetica, sans-serif" font-size="28" text-anchor="middle">Apple Watch / Health</text>
</svg>